# xmcd
#
# Track frame offsets:
#	150
#	17582
#	33730
#	50154
#	67863
#	83742
#	102766
#	114246
#	128258
#	146728
#	159063
#	176227
#	191952
#	208757
#
# Disc length: 2912 seconds
#
# Revision: 1
# Processed by: cddbd v1.4PL0 Copyright (c) Steve Scherf et al.
# Submitted via: audiograbber 1.80.04
#
DISCID=ba0b5e0e
DTITLE=Robby Turner - Steel Country
DYEAR=1998
DGENRE=Country
TTITLE0=Blues For Dixie
TTITLE1=I Just Destroyed The World
TTITLE2=Secret Love
TTITLE3=Healing Hands Of Time
TTITLE4=Storms Nener Last
TTITLE5=Don't Yoe Ever Get Tired
TTITLE6=Blame It On The Steel
TTITLE7=Let It Rain
TTITLE8=Touch My Heart (For Mom)
TTITLE9=Roly Poly (For Carson)
TTITLE10=Somewhere Over The Rainbow (For Tonda)
TTITLE11=Someone To Give My Love To
TTITLE12=Dreaming My Dreams
TTITLE13=Rocky Top
EXTD=
EXTT0=
EXTT1=
EXTT2=
EXTT3=
EXTT4=
EXTT5=
EXTT6=
EXTT7=
EXTT8=
EXTT9=
EXTT10=
EXTT11=
EXTT12=
EXTT13=
PLAYORDER=
